<svg width="603" height="500" viewBox="0 0 603 500" fill="none"
  xmlns="http://www.w3.org/2000/svg">
  <path d="M87.0789 162.016L94.0947 144.477L343.154 173.943L237.917 387.923L87.0789 162.016Z" stroke="black" stroke-width="2" stroke-linecap="square"/>
  <path d="M343.154 173.943L588.705 313.556L402.086 366.876L237.918 387.923L343.154 173.943Z" stroke="black" stroke-width="2" stroke-linecap="square"/>
  <path d="M229.491 375.302L1.48678 415.284L87.0789 162.016L229.491 375.302Z" stroke="black" stroke-width="2" stroke-linecap="square"/>
  <path d="M599.229 365.473L402.086 366.876L237.918 387.923L419.625 498.07L599.229 365.473Z" stroke="black" stroke-width="2" stroke-linecap="square"/>
  <path d="M1.48678 415.284L202.839 477.725L419.625 498.07L237.917 387.923L229.491 375.302L1.48678 415.284Z" stroke="black" stroke-width="2" stroke-linecap="square"/>
  <path d="M588.705 313.556L393.312 202.461L409.102 185.168L588.705 313.556Z" stroke="black" stroke-width="2" stroke-linecap="square"/>
  <path d="M588.705 313.556L571.867 129.042L409.102 185.168L588.705 313.556Z" stroke="black" stroke-width="2" stroke-linecap="square"/>
  <path d="M599.228 365.473L583.092 2.75841L571.867 129.042L588.705 313.556L402.086 366.876L599.228 365.473Z" stroke="black" stroke-width="2" stroke-linecap="square"/>
  <path d="M409.102 185.168L583.092 2.75841L571.867 129.042L409.102 185.168Z" stroke="black" stroke-width="2" stroke-linecap="square"/>
</svg>
