<svg width="128" height="128" viewBox="0 0 128 128" fill="none" xmlns="http://www.w3.org/2000/svg">

    <path d="M99.3597 81.6574C99.78 83.8739 100 86.1612 100 88.5C100 108.658 83.6584 125 63.5 125C43.3416 125 27 108.658 27 88.5C27 83.7829 27.8948 79.2747 29.524 75.1361L27.2925 72.6869C25.1749 77.5288 24 82.8772 24 88.5C24 110.315 41.6848 128 63.5 128C85.3152 128 103 110.315 103 88.5C103 85.813 102.732 83.1886 102.22 80.6523L99.3597 81.6574Z"/>
    <mask id="mask0_422_1226" style="mask-type:alpha" maskUnits="userSpaceOnUse" x="21" y="0" width="91" height="128">
        <path d="M110.775 55.1497C110.492 54.3617 109.375 51.9685 108.947 51.2449C106.478 47.0765 107.788 45.5064 108.387 43.2655C111.23 32.6175 102.748 26.5744 102.748 26.5744C102.748 26.5744 103.634 22.2596 103.634 18.2113C103.634 14.163 100.267 14.9363 96.8977 11.2747C93.5284 7.61306 94.4323 6.21289 86.4139 6.8075C79.1546 7.34653 79.1546 6.07228 76.9868 4.50218C72.2717 1.08956 69.1705 2.20268 67.7132 3.2045C66.1746 4.26198 64.3169 4.82147 62.444 4.61936C60.4057 4.39966 59.8727 4.34693 56.6691 2.05036C49.1419 -3.34539 47.3925 3.27774 38.2665 6.26561C32.052 8.30146 35.1382 12.1125 34.9394 17.8949C34.825 21.2343 33.0697 23.525 31.3805 25.7542C29.5138 28.2148 27.4965 31.3404 28.469 34.2463C29.5951 37.6119 27.7524 41.9327 27.1683 43.0692C26.0994 45.149 24.3802 49.6279 24.7957 56.3741C18.4577 65.2381 22.2334 72.0455 25.0095 74.744C27.7825 77.4419 31.6485 77.8313 35.8999 83.0336C39.4046 87.3188 44.2793 89.9733 47.3383 91.4467C48.1483 91.836 48.4976 92.8 48.1062 93.5937C36 117.333 37.3333 128 37.3333 128L49.3333 128L70.7963 128C70.146 122.482 68.6774 122.042 68 120L68.0113 118.252L74.8129 118.338C75.5054 118.346 76.7188 118.291 77.2878 117.91L78.4471 115.262L77.9924 112.663L80.0398 111.764C80.4041 111.603 80.6209 111.234 80.5728 110.85C80.3048 108.683 79.4648 101.544 79.4648 96.8512C79.4648 91.2621 80.6782 92.3224 85.8569 91.0831C92.568 89.4781 93.5619 86.5401 93.6519 85.2274C93.6825 84.7974 93.9532 84.4188 94.3625 84.252C96.3621 83.4291 102.022 81.1498 106.626 79.8026C111.187 78.4669 108.583 73.9178 109.968 71.0266C113.229 64.2305 111.838 58.1112 110.772 55.1585L110.775 55.1497ZM98.6622 55.2668C99.2913 52.1266 100.111 49.4434 102.215 49.8212C102.068 50.5536 102.393 51.2888 102.998 52.027C102.998 52.027 105.87 53.8901 100.981 57.619C93.7 63.1672 89.8885 54.6751 89.8885 54.6751C91.2464 55.0969 92.7396 54.5697 94.3235 53.4008C94.4351 53.1724 93.9141 54.6107 95.1304 55.0676C94.5913 56.9775 96.4374 59.0866 96.7443 59.0896C96.8015 58.8054 96.738 57.4785 96.7443 56.834C96.7778 53.9545 98.6594 55.2639 98.6594 55.2639L98.6622 55.2668ZM90.0903 63.214C88.7805 63.0177 89.3345 63.753 88.0729 64.8808C85.351 66.6969 84.4418 63.4103 84.4418 63.4103L83.4331 58.3104C83.4331 58.3104 90.8941 59.6842 90.0872 63.214H90.0903ZM90.292 38.0016C90.292 38.0016 94.5767 38.1481 93.4175 42.6123C93.2153 46.2915 94.1219 46.9272 94.1219 46.9272C94.1219 46.9272 94.9798 44.9645 97.7528 46.2417C95.5851 46.684 93.6163 50.082 92.6106 49.9208C91.9689 49.8183 91.2101 48.7374 91.0985 47.6155C90.8068 44.6686 88.2746 42.5479 88.2746 42.5479L86.5976 41.6954L88.9912 41.007L90.295 38.0016H90.292ZM89.4188 53.4038C86.3266 55.3664 84.1768 53.6645 84.1768 53.6645C84.1768 53.6645 83.0327 52.0944 81.3526 53.6645C79.0673 51.6374 76.2431 51.573 76.2431 51.573C76.2431 51.573 77.1162 49.8066 75.8396 47.6477C76.782 47.1234 77.6552 46.6019 77.6552 46.6019C77.6552 46.6019 79.0613 47.4281 81.0154 47.2552C82.9694 47.0853 84.8483 45.5563 84.8483 45.5563C84.8483 45.5563 85.05 48.8253 89.4188 53.4038ZM75.5716 70.7654C75.5716 70.7654 74.1083 70.9622 73.756 69.7845C73.4038 68.6069 72.7474 66.2517 72.7474 66.2517L79.5039 59.5817C79.5039 59.5817 79.251 60.6597 79.6033 62.2297C79.9555 63.7999 80.7263 70.3116 79.5039 73.1675C79.001 74.3451 78.2935 74.0996 77.7907 73.4138C77.2878 72.7286 77.035 70.3733 76.9838 69.6848C76.9326 68.9996 75.9239 67.7222 75.4723 68.9996C75.0176 70.2736 75.5716 70.7654 75.5716 70.7654ZM69.321 59.7779C69.321 59.7779 70.1279 55.1174 76.4809 55.756C75.9781 58.6501 70.8355 62.0335 70.8355 62.0335L71.2389 60.6597L69.324 59.7779H69.321ZM59.5747 69.2276C59.5747 69.2276 57.9609 70.994 57.9609 70.5375C57.9609 70.0803 58.7678 68.0533 58.3643 67.5288C57.9609 67.0045 56.6842 66.3513 56.2807 68.5099C55.8773 70.6691 55.5401 73.2849 53.592 73.021C52.4539 72.869 52.5171 71.1908 53.1223 70.6664C53.7275 70.142 54.2665 68.0499 53.7937 66.0876C53.4294 64.5732 55.8773 63.9288 55.6756 61.7728C55.4738 59.6139 55.0041 56.9336 55.0041 56.9336C55.0041 56.9336 61.7938 63.0822 61.1885 66.3513C58.837 67.2681 59.5747 69.2276 59.5747 69.2276ZM50.2981 51.4383C48.4825 52.7476 48.5518 51.9626 48.5518 51.9626C48.5518 51.9626 47.4437 51.3416 49.4941 49.871C51.5446 48.4006 51.3759 46.7983 51.5115 44.6394C51.5115 44.6394 52.3184 45.5563 55.1427 46.7308C57.9669 47.9085 59.3097 45.2926 59.3097 45.2926C59.3097 45.2926 60.3184 46.3383 60.3846 47.1234C60.4508 47.9085 58.5028 48.8224 58.5028 48.8224C58.5028 48.8224 55.4768 51.699 53.7967 50.785C52.1167 49.8681 52.1167 50.1318 50.3011 51.4383H50.2981ZM50.6353 57.7157L49.6929 61.5736C49.6929 61.5736 48.4494 60.2994 48.1483 62.4231C46.8716 60.9204 44.8544 61.1137 44.8544 61.1137C44.8544 61.1137 45.9293 60.4283 46.971 58.3983C48.1483 56.1105 50.6353 57.7128 50.6353 57.7128V57.7157ZM57.0214 55.2317C57.0214 55.2317 62.8024 53.4008 66.1626 59.0251C63.5401 58.5681 63.0703 60.8559 63.0703 60.8559L57.0214 55.2317ZM63.4738 50.6532C64.6842 50.4569 68.1798 40.1897 68.1798 40.1897C68.1798 40.1897 71.9435 46.4028 71.811 51.3064C69.7937 51.9597 68.3153 54.0541 68.3153 54.0541C68.3153 54.0541 66.569 51.7663 63.4768 50.6532H63.4738ZM83.6409 41.2355C83.1019 37.899 78.6668 37.0496 78.6668 37.0496C78.6668 37.0496 80.3469 35.2832 80.3469 33.8449C80.3469 32.4066 78.3989 29.987 78.3989 29.987C83.5746 29.0057 87.9435 33.4524 83.6409 41.2355ZM76.6496 29.5945C76.6496 29.5945 77.321 30.1188 78.2634 34.3019C76.0443 36.9822 75.9781 42.1495 75.9781 42.1495C75.9781 42.1495 75.3066 42.2139 73.8283 42.6738C72.2145 38.2916 70.4681 39.141 70.4681 39.141C70.4681 39.141 70.6699 38.356 71.814 35.8719C72.9582 33.3879 74.5028 34.173 74.5028 34.173L73.2924 31.8179L73.8524 31.4458L73.8374 28.3525C73.8374 28.2558 73.9006 28.1708 73.9969 28.1416C74.0902 28.1123 74.1956 28.1474 74.2498 28.2294L75.6529 30.2536L76.6496 29.5945ZM65.2562 22.0223L67.2374 24.2339L68.216 19.5294C68.3575 18.844 69.0139 17.104 69.5889 17.1069C70.164 17.1099 70.6578 18.8499 70.7963 19.5383L71.4046 22.5349L73.0334 21.1083C73.6657 20.5547 74.6443 21.1874 74.3583 21.9696L72.0037 28.4433C71.7237 29.2108 70.971 29.7146 70.1339 29.6941L67.1079 29.6179C66.6172 29.6063 66.1866 29.2957 66.03 28.8446L63.9224 22.7663C63.6484 21.9783 64.6902 21.3954 65.2533 22.0223H65.2562ZM60.1227 31.8208L61.4505 28.8944C61.595 28.5722 62.0015 28.4521 62.3056 28.6366L64.1754 29.7615C64.3801 29.8845 64.4463 30.1423 64.3229 30.3444C63.9857 30.8922 63.3895 31.9497 63.3413 32.6029C64.1001 33.4905 65.3948 35.7108 65.9849 36.7537C66.1686 37.0759 66.1174 37.4743 65.8554 37.7408C65.0605 38.5494 63.4738 40.3567 63.4738 41.8917C63.4738 41.8917 61.6492 41.8067 61.7275 41.3674C62.7361 35.6786 59.939 33.7101 59.939 33.7101C59.7915 33.0774 59.8577 32.4154 60.1257 31.8237L60.1227 31.8208ZM57.4219 27.2072C58.6323 26.5217 60.2943 27.9922 59.7403 28.4814C56.7384 31.1353 57.6236 34.4659 57.6236 34.4659C57.6236 34.4659 58.8852 34.5157 58.5299 36.036C58.1776 37.5563 55.9074 37.9488 55.2028 38.2916C54.4983 38.6343 54.7994 40.2542 54.7994 40.2542C54.7994 40.2542 52.6315 37.2634 52.1769 36.1327C51.7222 35.0049 52.1769 33.0921 53.589 31.0328C54.0677 30.3356 54.5104 29.9636 54.8867 29.779L54.0135 26.8908H54.3267C54.3778 26.8908 55.6786 27.3331 56.6601 27.9688C56.8468 27.6699 57.0907 27.3946 57.4189 27.2072H57.4219ZM47.4407 10.5307L48.9522 12.1008L49.1539 8.56806C50.1626 7.68632 50.3854 5.79107 51.3218 7.0975C52.5442 8.79945 53.0952 12.6749 52.9236 13.2959L54.8024 11.6086C55.6033 11.1634 56.5487 11.9103 56.2627 12.7657L54.0918 17.725C53.7967 18.4017 53.0711 18.8001 52.3244 18.7005L49.2834 18.2933C48.3531 18.1674 47.5912 17.5053 47.3655 16.6177L46.2303 12.2003L46.131 10.7299C46.2183 10.1381 46.968 10.1499 47.4407 10.5336V10.5307ZM37.5589 74.392C37.5589 74.392 37.86 76.4047 36.5503 76.9433C36.1468 74.3452 34.1295 73.5603 32.0128 74.2956L31.0042 73.5108C31.0042 73.5108 32.5157 70.912 30.399 69.9778C30.399 69.9778 30.8024 67.2301 32.4163 66.9372L34.0302 66.6442C34.0302 66.6442 35.1382 67.3794 35.644 66.0554C36.1498 64.7314 37.0561 65.5663 37.0561 65.5663C37.0561 65.5663 38.1159 66.3015 37.3572 68.3138C36.6015 70.3265 37.5589 74.3953 37.5589 74.3953V74.392ZM38.3146 62.4231C36.6497 60.9028 35.2887 61.2953 33.6267 61.3451C33.1238 59.2858 31.51 58.4012 31.51 58.4012C31.51 58.4012 30.7031 60.8032 30.6037 63.4044C28.2341 63.8467 27.4784 66.8375 27.4784 66.8375C27.4784 66.8375 26.7227 64.2861 27.2767 61.3451C27.8307 58.4041 29.9986 53.5942 29.9986 53.5942C29.9986 53.5942 31.9406 55.9054 34.283 57.7157C36.6255 59.526 39.3775 60.8296 39.3745 61.1488C39.3745 61.6819 38.7512 62.8215 38.3146 62.4231ZM39.5762 55.8497C39.5762 55.8497 37.8992 55.5275 37.3572 55.3606C36.5804 55.1203 35.4001 53.9369 34.5841 53.9369L32.3169 53.9867L33.4249 50.8465L33.1208 49.669C32.9251 48.9074 32.9944 48.1018 33.3225 47.3841L33.7772 46.3852C34.3583 45.6236 35.117 45.3453 35.7795 45.5386C38.5164 46.3354 37.6583 48.6906 37.6583 48.6906C37.6583 48.6906 39.6244 48.4943 40.079 51.4383L39.5762 55.8527V55.8497ZM40.1814 41.7247C40.2838 41.1594 40.5186 40.7815 40.6843 41.3322C41.0395 42.501 43.3549 43.6375 44.0113 41.5783C44.8483 38.9448 44.3124 36.5252 44.3124 36.5252L46.6308 34.0734L48.8498 39.9583L47.236 40.9397C47.236 40.9397 48.1513 46.5258 44.3124 46.7279C42.4456 46.8246 41.8916 44.9616 41.8916 44.9616C41.8916 44.9616 41.8916 44.1267 40.9853 43.784C40.5066 43.6024 39.9767 42.8525 40.1784 41.7247H40.1814ZM40.886 53.5942C41.0365 52.0739 42.1957 50.5536 42.7015 49.669C43.2044 48.7872 41.7953 48.3947 41.7953 48.3947C41.7953 48.3947 42.4998 48.5412 43.105 48.6876C43.4332 48.7667 44.1197 49.3994 44.6797 49.959C45.1644 50.4452 45.8209 50.7176 46.5164 50.7908C46.9018 50.8319 47.2872 50.9725 47.4407 51.3357C47.5401 51.5672 47.5581 51.8219 47.537 52.0681C47.4769 52.7506 47.0764 53.3569 46.5013 53.7524C45.9082 54.1566 44.9477 54.7747 43.8095 55.3576C41.8947 56.339 40.6843 55.6506 40.6843 55.6506C40.6843 55.6506 40.7354 55.1116 40.886 53.5913V53.5942ZM41.6929 65.4637C42.7527 63.0119 42.3974 61.5385 42.3974 61.5385L46.2303 62.5197C46.2303 62.5197 46.131 64.5322 46.8355 65.9529C49.0545 65.7566 49.0034 65.9031 49.6598 66.4421C50.3161 66.981 52.484 69.2866 51.1713 72.131C49.8615 74.9753 47.9435 74.2895 47.9435 74.2895C47.9435 74.2895 45.9985 75.9474 45.5498 77.0756C45.4625 77.3388 45.4294 77.3978 45.5228 77.1339C45.5288 77.1135 45.5408 77.0932 45.5498 77.0756C45.8389 76.2052 46.7332 73.0712 45.7245 71.6419C45.0441 70.6752 42.0934 68.7975 42.0934 68.7975C42.0934 68.7975 40.6301 67.9156 41.6899 65.4608L41.6929 65.4637ZM53.3903 88.5819C53.0531 89.3024 51.644 88.974 51.644 88.974C51.644 88.974 51.3759 86.3583 50.4336 86.4899C49.4911 86.6222 48.2838 88.3208 47.2058 87.1431C46.131 85.9655 46.6669 84.5274 46.2635 82.9576C45.8841 81.4754 45.0531 81.1267 45.0531 81.1267C45.0531 81.1267 48.615 81.9761 50.0271 81.2583C51.4392 80.5406 51.6409 79.4274 51.6409 79.4274C51.6409 79.4274 52.3124 77.8577 53.7907 78.6426C54.7331 79.4274 55.4045 79.9518 55.4045 79.9518C55.4045 79.9518 53.0531 84.138 53.3873 88.5846L53.3903 88.5819ZM56.6179 80.0807C56.6179 80.0807 57.1569 75.6985 55.6756 74.5887C55.6756 74.5887 57.6236 74.0643 57.4219 72.365C59.1682 72.2334 61.321 71.8406 61.321 71.8406L61.7245 69.6176C62.5976 70.8597 64.2777 71.5801 64.2777 71.5801C64.2777 71.5801 65.4881 74.6531 64.0097 76.0268C62.5314 77.4005 59.4392 77.2044 58.7678 77.9893C58.0963 78.7742 56.6179 80.0807 56.6179 80.0807ZM68.767 84.9846C67.9089 82.9251 67.3549 83.0221 66.6985 82.6293C65.2201 81.7447 64.3801 84.1 64.3801 84.1C64.3801 84.1 62.8175 86.8474 62.2634 85.2776C61.7094 83.7072 60.3485 82.4828 59.6409 82.2365C59.6409 82.2365 64.9853 79.981 66.1957 77.0376C68.1618 79.7849 71.793 81.352 72.648 82.3335C70.2785 83.1184 70.0255 86.3556 70.0255 86.3556C70.0255 86.3556 69.1072 85.8047 68.764 84.9819L68.767 84.9846ZM77.0862 76.6448C76.7339 77.7227 77.3872 81.7447 76.1798 82.1375C75.2976 78.7362 71.1637 78.6399 69.0199 74.9753C69.0199 74.9753 68.1618 72.2273 69.9262 71.8352C71.6906 71.4424 72.1452 70.2648 72.1452 70.2648L72.2446 71.3427C72.3439 72.4206 73.1027 72.8134 75.3699 73.5019C77.6371 74.1871 77.4384 75.5608 77.0831 76.6421L77.0862 76.6448ZM86.5644 87.0441C85.2547 89.5452 82.5299 87.6329 82.5299 87.6329C82.5299 87.6329 81.756 90.3477 79.5039 91.1651C80.5456 85.6378 77.3872 81.7474 77.3872 81.7474L78.6969 80.7665L78.8987 76.9406C78.8987 76.9406 81.2863 77.1366 82.6954 80.9951C83.9058 81.1912 85.2487 82.7609 87.6695 83.3178C86.2574 83.8565 87.8712 84.545 86.5614 87.0468L86.5644 87.0441ZM89.0846 74.3892C87.5731 72.6228 86.6638 74.782 86.6638 74.782L86.5644 75.8599C86.5644 75.8599 84.3966 75.0744 83.7402 73.6044C83.0838 72.1337 82.2288 70.4642 82.2288 70.4642C82.2288 70.4642 83.4904 69.2364 86.5644 69.2866C89.6386 69.3361 89.7922 66.8346 89.7922 66.8346C90.8129 66.4216 92.2612 66.3923 92.5143 64.3828C92.5143 64.3828 93.6735 65.5604 94.4288 71.6419C91.427 70.0599 90.7978 71.5917 89.0846 74.3892ZM103.269 78.7715C99.5054 76.6129 98.4307 80.3419 98.4307 80.3419C98.4307 80.3419 98.9691 78.0538 96.1452 78.3787C97.8253 74.9136 97.3552 68.8294 97.3552 68.8294C97.3552 68.8294 98.0541 70.6752 99.776 71.5096C101.499 72.3447 103.675 71.9668 103.675 71.9668L104.886 74.3221C104.886 74.3221 102.736 74.1898 103.272 78.7688L103.269 78.7715ZM107.84 71.3163C106.629 69.4854 105.353 69.0288 104.076 67.9156C103.82 67.9536 106.608 64.7108 105.019 63.6007C103.763 62.7219 102.179 65.739 102.062 65.6922C100.975 65.2792 98.0513 66.1257 96.6843 67.0016C96.0064 67.4351 96.4165 63.8614 96.4165 63.8614C96.4165 63.8614 100.987 64.2539 105.828 60.0679C109.185 63.2403 108.908 71.2491 107.845 71.3163H107.84Z"/>
    </mask>
    <g mask="url(#mask0_422_1226)">
        <path d="M128 0H0V87H24.028C24.0094 87.4977 24 87.9978 24 88.5C24 110.315 41.6848 128 63.5 128C85.3152 128 103 110.315 103 88.5C103 87.9978 102.991 87.4977 102.972 87H128V0Z"
              fill="#D9D9D9"/>
    </g>

    <style>
        path { fill: #000; }
        @media (prefers-color-scheme: dark) {
        path { fill: #FFF; }
        }
    </style>
</svg>
